<svg width="138" height="72" viewBox="0 0 138 72" fill="none" xmlns="http://www.w3.org/2000/svg">
<path d="M138 0H0L59.5338 66.6546C64.7846 72.473 73.2894 72.473 78.5402 66.6546L138 0Z" fill="#81B3D3"/>
<path d="M31.9485 0.515573L68.6302 43.528L105.09 0.810179L31.9485 0.515573Z" fill="#23A9E1"/>
<path d="M90.225 12.7417C86.4533 12.7417 82.7556 12.8153 78.9839 12.8153C83.4212 7.7334 85.4179 8.24896 90.225 12.7417Z" fill="white"/>
<path d="M59.7556 16.7189C66.3376 16.7189 72.9196 16.7189 79.5016 16.7189C78.0225 15.8351 74.5466 11.4896 72.6238 13.11C72.4759 13.2573 67.0771 6.55499 63.5273 9.79565C60.4212 12.5944 59.0161 9.42739 55.4662 11.6369C51.5466 14.2884 57.8328 15.8351 59.7556 16.7189Z" fill="white"/>
<path d="M68.852 0H31.209V16.5716L68.6302 61.8672L68.852 61.5726L106.347 17.0871V0H68.852ZM40.6012 1.32573H44.6688V13.9938L40.6012 9.20643V1.32573ZM40.0096 8.54357L36.3118 4.19813V1.32573H40.0096V8.54357ZM54.2829 6.55498L50.0675 1.32573H54.2829V6.55498ZM49.4019 9.35373L45.2604 1.32573H49.4019V9.35373ZM45.1864 2.50415L49.254 10.3849C47.1832 11.9315 45.7781 13.3309 45.1864 13.9938V2.50415ZM49.9935 2.13589L54.135 7.21784C53.3215 7.65975 52.508 8.17531 51.8424 8.61722C51.1768 9.05913 50.5852 9.50104 49.9935 9.94295V2.13589ZM54.8745 1.98859L58.4244 5.08195C57.1672 5.59751 55.9839 6.18672 54.8745 6.77593V1.98859ZM59.016 4.861L55.0225 1.32573H59.4598V4.71369C59.2379 4.71369 59.1639 4.78734 59.016 4.861ZM73.1414 1.32573H76.8392L73.1414 3.09336V1.32573ZM68.852 1.32573H72.1061L68.852 2.87241V1.32573ZM68.1864 2.79876L65.0803 1.32573H68.1864V2.79876ZM64.1189 3.16701L60.3472 1.32573H64.1189V3.16701ZM59.9774 1.76763L63.4533 3.46162C62.27 3.75622 61.0868 4.05083 59.9774 4.41909V1.76763ZM64.7106 1.76763L67.225 2.94606C66.3376 3.01971 65.5241 3.09336 64.6366 3.24066V1.76763H64.7106ZM72.4019 1.84129V3.24066C71.5884 3.09336 70.7749 3.01971 69.8874 2.94606L72.4019 1.84129ZM77.209 1.76763V4.49274C76.0996 4.12448 74.9163 3.75622 73.6591 3.46162L77.209 1.76763ZM77.7266 1.32573H82.09L78.0964 4.861C77.9485 4.78734 77.8745 4.78734 77.7266 4.71369V1.32573ZM87.7845 1.32573H91.926L87.7845 9.35373V1.32573ZM82.9035 1.32573H87.1189L82.9035 6.48133V1.32573ZM82.3118 1.98859V6.77593C81.2025 6.18672 80.0192 5.59751 78.762 5.08195L82.3118 1.98859ZM87.1929 2.13589V9.8693C86.6752 9.50104 86.0835 9.13278 85.4919 8.69087C84.7523 8.17531 83.8649 7.65975 82.9774 7.14419L87.1929 2.13589ZM91.926 2.50415V13.6992C91.1125 12.9627 89.7813 11.7106 87.8585 10.3112L91.926 2.50415ZM92.5176 14.2884V1.32573H96.5852V9.72199L92.5176 14.2884C92.5916 14.362 92.5176 14.362 92.5176 14.2884ZM97.1768 1.32573H100.875V4.78734L97.1768 9.05913V1.32573ZM35.7942 1.32573V3.46162L33.9453 1.32573H35.7942ZM45.2604 14.7303L45.3344 14.8039C45.3344 14.8039 47.9967 11.9315 52.1382 9.20643C56.0578 6.62863 61.9742 3.60892 68.6302 3.68257C75.2122 3.68257 81.2765 6.77593 85.1221 9.35373C89.2636 12.0788 91.9999 14.8776 92.0739 14.9512L89.1897 18.2656C84.0868 18.9284 80.389 22.7583 75.434 21.9481C72.9196 21.5062 72.8456 20.1068 72.1061 18.6338C71.5884 17.529 70.7009 17.6763 69.5176 17.2344C68.4823 16.7925 67.8167 15.9824 65.672 16.4243C63.8231 16.8662 63.6012 19.7386 61.2347 19.5913C59.9774 19.5176 59.9035 17.75 58.1286 15.5405C53.4694 9.94295 49.1061 10.7531 46.1479 15.9087L68.5562 42.3496L45.2604 14.7303ZM101.392 4.05083V1.32573H103.759L101.392 4.05083Z" fill="#491213"/>
<path d="M65.598 52.2189L68.6302 47.4315L71.5884 52.2189L68.6302 57.0062L65.598 52.2189Z" fill="#23A9E1"/>
<path d="M48.4405 23.7894C48.8103 24.2313 49.1061 24.7469 49.0322 25.3361C48.9582 25.778 48.3666 26.5145 48.8103 26.6618C49.328 25.999 49.9196 25.2624 50.4373 24.5996C49.9936 24.4523 46.4437 20.3278 46.4437 19.8122C45.6302 20.2541 44.8907 20.6961 44.0772 21.0643C44.2251 21.5799 45.0386 21.0643 45.4823 21.0643C46.074 21.138 46.5177 21.5062 46.9614 21.9481C45.7042 22.9792 42.5981 25.6307 42.2283 25.7043C42.0804 25.7043 41.4148 25.2624 41.4148 25.6307C41.4148 25.8517 42.0804 26.3672 42.1543 26.5145C42.672 27.1774 43.2637 27.8402 43.7814 28.5031C44.2251 28.2821 43.7074 27.9875 43.9293 27.6193C44.1511 27.3247 47.5531 24.4523 48.4405 23.7894Z" fill="white"/>
<path d="M44.5209 18.6338C44.8167 18.5602 44.9646 18.9284 45.2604 18.5602C44.6688 17.8236 44.0772 17.1608 43.4855 16.4243C43.1897 16.1297 42.8939 15.7614 42.9678 16.4243C43.0418 16.8662 38.4566 20.6224 38.1608 20.696C37.791 20.8434 37.5691 20.4014 37.3473 20.7697C37.8649 21.4326 38.4566 22.0218 38.9743 22.6846C39.1222 22.9056 39.344 23.1265 39.492 23.3475C39.7138 23.5685 39.6399 22.8319 39.6399 22.9056C39.5659 22.5373 40.0096 22.2427 40.3055 22.0218C41.4148 21.0643 44.2251 18.6338 44.5209 18.6338Z" fill="white"/>
<path d="M38.0128 17.971C36.6816 18.3392 35.2765 17.8237 34.9067 16.4979C34.5369 15.1722 35.3504 13.6992 36.4598 12.9627C37.4951 12.2261 39.1221 12.2261 39.7138 13.5519C39.9357 14.1411 39.8617 14.8039 39.6398 15.3932C39.4919 15.7614 39.1961 16.1297 39.7138 16.3506C40.3794 15.5405 40.971 14.7303 41.6366 13.9201C40.8231 13.4782 40.5273 12.6681 39.9357 12.0052C39.2701 11.195 38.3826 10.4585 37.3472 10.3112C35.2025 10.0166 33.2057 12.2261 33.0578 14.1411C32.9839 15.2459 33.3537 16.2033 33.9453 17.0871C34.5369 17.8237 35.3504 18.2656 35.7202 19.1494C35.9421 19.223 37.717 18.4129 38.1607 18.1919C38.0868 18.1183 38.0868 18.0446 38.0128 17.971C37.4951 18.1183 38.0128 17.971 38.0128 17.971Z" fill="white"/>
<path d="M67.0772 44.7801C66.1897 44.1909 64.119 41.3185 63.6753 40.8766C63.6013 40.8029 63.5273 40.6556 63.4534 40.582C63.4534 40.582 63.2315 40.7293 63.3055 40.7293C63.1576 40.8029 63.3794 41.1712 63.2315 41.3921C62.6399 42.2759 58.9421 45.0747 58.7942 45.222C58.3505 45.5166 57.9068 45.0747 57.6849 45.443C58.2026 46.1058 59.7556 48.0208 59.9036 48.0944C60.2733 48.1681 59.9775 47.5052 60.0515 47.3579C60.1254 47.0633 61.9743 45.5903 62.6399 45.001C62.8618 44.7801 63.1576 45.2956 63.3055 45.5166C63.5273 45.8849 63.6753 46.2531 63.5273 46.695C63.4534 46.9896 63.0097 47.3579 63.3055 47.5788C63.7492 47.0633 65.0804 45.5166 65.2283 45.3693C65.4502 45.1483 64.7846 45.3693 64.8585 45.2956C64.5627 45.443 64.3408 45.443 64.045 45.2956C63.9711 45.222 63.2315 44.4855 63.3055 44.4118C63.6013 44.1172 64.045 43.6753 64.4148 43.6017C65.0804 43.4544 65.5981 44.7064 65.672 45.1483C65.746 45.5903 65.746 46.0322 65.5981 46.4741C65.5241 46.7687 65.2283 46.9896 65.5981 47.1369C66.1158 46.4004 66.6335 45.7376 67.1511 45.001C67.2991 44.8537 67.1511 44.7801 67.0772 44.7801C67.0032 44.7064 67.2251 44.7801 67.0772 44.7801Z" fill="white"/>
<path d="M59.5338 41.6867C61.1608 40.2874 61.3827 37.9305 60.1254 36.3102C58.7203 34.4689 56.1319 34.027 54.3569 35.5C52.7299 36.8994 52.5081 39.1826 53.7653 40.8766C55.2444 42.8652 57.611 43.0861 59.5338 41.6867C60.4212 41.0239 59.4598 41.7604 59.5338 41.6867ZM59.164 38.2251C58.7203 39.3299 57.537 40.5083 56.4277 40.9502C55.0965 41.4658 54.1351 40.361 54.6528 39.0353C55.1704 37.9305 56.2798 36.7521 57.3891 36.3102C58.7942 35.7946 59.6817 36.973 59.164 38.2251C58.8682 38.888 59.238 38.0778 59.164 38.2251Z" fill="white"/>
<path d="M54.8006 30.9336C55.1704 31.0073 55.4662 31.3019 55.762 30.9336C55.2443 30.2708 54.6527 29.6079 54.135 29.0187C53.6913 29.2396 54.135 29.3869 53.9871 29.7552C53.8392 30.0498 52.0643 30.3444 51.6205 30.4181C51.7684 29.9762 52.2861 28.5031 52.508 28.3558C52.8778 28.0612 53.1736 28.6504 53.4694 28.2822C52.8038 27.472 52.1382 26.6618 51.4726 25.8517C51.2507 25.5571 51.0289 25.1152 50.7331 25.3361C50.7331 25.3361 50.7331 26.4409 50.6591 26.5882C50.5852 26.7355 49.9935 29.2396 49.254 29.9025C48.8842 30.1971 47.627 31.3019 47.2572 31.4492C46.8874 31.5965 46.6655 31.0073 46.3697 31.4492C46.9614 32.1857 47.627 32.9222 48.2186 33.6587C48.2925 33.7324 48.6623 34.3216 48.8102 34.3216C49.18 34.3952 48.8842 33.6587 48.8842 33.5114C49.0321 33.2168 50.7331 31.5228 51.4726 31.3755C52.3601 31.2282 53.6913 30.86 54.8006 30.9336C55.0224 31.0073 54.5048 30.9336 54.8006 30.9336Z" fill="white"/>
<path d="M50.1415 16.8662C47.1833 16.7189 48.3665 13.9201 50.4373 13.3309C52.3601 12.7417 56.4276 14.583 57.6849 15.8351C55.6141 16.4979 52.9518 16.3506 50.7331 16.4979C50.5852 14.1411 49.9936 14.9512 50.1415 16.8662Z" fill="#DC6243"/>
<path d="M57.1672 26.0726C50.807 25.9989 55.0964 16.277 57.2411 16.8662C59.7556 17.6763 59.4598 26.1463 57.1672 26.0726Z" fill="#DC6243"/>
<path d="M61.6784 22.9056C61.0867 24.7469 59.9035 25.1152 60.0514 22.832C60.1993 20.2542 61.9003 20.8434 63.6752 19.8859C65.1543 19.0757 65.9678 16.056 68.5562 17.8237C69.7395 18.6338 71.0707 17.971 71.4405 19.1494C71.4405 19.0757 68.1125 26.7355 69.9614 26.7355C66.2636 26.7355 67.8906 22.39 69.2958 19.444C67.9646 20.1069 65.7459 24.3786 67.5208 25.0415C66.5594 26.2936 63.6752 27.9139 62.1961 26.7355C61.0867 25.9253 61.6784 24.3786 61.6784 22.9056Z" fill="#DC6243"/>
<path d="M64.7106 29.9761C62.1221 30.7126 58.7202 29.0923 62.8617 28.2821C65.4501 27.7666 68.1864 28.7977 64.7106 29.9761C64.7845 29.9761 64.6366 29.9761 64.7106 29.9761Z" fill="#DC6243"/>
<path d="M67.9646 29.9025C67.4469 28.6504 68.4083 27.251 69.9613 28.2821C71.2925 29.166 69.2957 30.5653 67.9646 29.9025Z" fill="#DC6243"/>
<path d="M65.746 33.2904C63.971 32.7749 57.9807 32.8485 61.9003 31.2282C63.1575 30.7863 69.4437 31.3755 65.746 33.2904Z" fill="#DC6243"/>
<path d="M73.5112 35.7209C72.4758 34.8371 71.3665 34.7635 70.4051 35.7209C69.0739 33.2904 64.2668 34.1006 61.9742 33.7324C63.1575 36.7521 72.9195 37.3413 73.5112 35.7209Z" fill="#DC6243"/>
<path d="M72.106 37.5623C69.7394 37.4886 67.151 37.1203 65.0063 37.6359C66.4115 38.0042 69.7394 38.9616 66.6333 39.7718C67.7426 41.3921 69.5915 41.2448 70.7748 39.8454C70.2571 39.6245 70.0353 39.3299 69.5915 39.0353C70.7748 38.8143 71.9581 38.1515 72.106 37.5623Z" fill="#DC6243"/>
<path d="M74.7684 34.6898C70.8488 32.4067 71.8102 30.7127 75.0642 29.0923C76.7652 28.2822 80.4629 25.2625 82.016 26.2199C79.5755 29.0923 77.135 31.8911 74.7684 34.6898Z" fill="#DC6243"/>
<path d="M71.9582 29.3133C68.6302 25.9253 76.9131 26.2199 78.2443 25.0415C79.2057 25.3361 86.2315 18.9284 87.9324 19.3703C86.6752 20.7697 84.0868 25.3361 82.1639 25.3361C80.6848 25.3361 79.2057 25.1152 78.0964 26.1463C76.4694 27.693 73.7331 28.4295 71.9582 29.3133Z" fill="#F49774"/>
<path d="M73.0674 25.1888C71.2185 26.1463 69.5176 22.3164 72.6976 22.6846C74.7684 22.9056 76.9131 22.5373 78.8359 22.832C77.3568 24.5259 75.36 25.4834 73.0674 25.1888Z" fill="#F4B1A4"/>
<path d="M82.3858 38.667C82.5337 39.1089 82.6076 39.6245 82.5337 40.14C82.4597 40.8029 81.7941 42.2759 80.9067 41.834C80.0192 41.3921 79.2797 40.582 78.5401 39.9191C79.1318 39.2562 79.6494 38.667 80.6848 38.9616C80.9806 39.0353 81.2025 38.9616 80.9067 38.7407C80.6109 38.5934 78.6141 37.2676 78.4662 37.4149C78.2443 37.6359 78.8359 38.0778 78.6141 38.5197C78.4662 38.8143 78.1704 39.1089 77.9485 39.4035C77.4308 38.9616 76.5433 38.4461 77.135 37.7095C77.5048 37.194 78.0964 36.8257 78.688 36.7521C79.1318 36.6784 80.0192 37.0467 80.1671 36.6048C79.3536 36.2365 78.5401 35.8683 77.7266 35.4264C77.8745 36.0156 75.2861 38.7407 74.6945 39.4772C74.6205 39.5508 74.1768 39.9191 74.1768 40.0664C74.1768 40.361 74.6205 40.14 74.6945 40.14C75.0642 39.9927 79.7234 43.8963 79.8713 44.1909C79.9453 44.4118 79.7234 44.6328 79.8713 44.7064C79.8713 44.7064 80.0192 44.8537 80.0932 44.8537C80.389 44.4855 83.4211 40.4347 84.0867 40.2874C83.4951 39.4035 82.9035 38.5197 82.3118 37.5622C81.8681 37.7832 82.3118 38.2988 82.3858 38.667Z" fill="white"/>
<path d="M77.8005 43.6017C76.2475 42.6442 73.659 44.5591 73.2893 44.7064C72.5497 45.0747 71.9581 44.3382 72.3279 43.6017C72.6976 43.0124 73.3632 42.7178 74.0288 42.6442C74.2507 42.6442 74.9902 42.7915 75.1381 42.6442C75.2121 42.4969 75.2861 42.4969 75.1381 42.4232C74.4726 41.9813 73.8809 41.5394 73.2153 41.1712C73.0674 41.9813 72.18 42.4232 71.6623 42.9388C71.0706 43.6017 70.5529 44.3382 70.5529 45.2956C70.5529 46.1058 71.0706 46.8423 71.8102 47.2842C72.6237 47.7261 73.5111 47.3579 74.2507 46.916C74.6944 46.6214 75.2121 46.2531 75.6558 46.0322C76.3954 45.6639 77.3568 45.9585 77.1349 46.9896C76.9131 47.7998 76.0996 48.5363 75.36 48.6836C74.9163 48.8309 74.3986 48.7573 73.9549 48.61C73.6591 48.5363 73.2153 48.0944 73.0674 48.5363C73.9549 49.1255 74.7684 49.7884 75.6558 50.3776C75.7298 49.7884 76.0256 49.5674 76.4693 49.1992C76.987 48.7573 77.5047 48.2417 77.9484 47.6525C78.8359 46.4004 79.1317 44.6328 77.8005 43.6017Z" fill="white"/>
<path d="M77.8005 43.6017C78.5401 44.0436 77.3568 43.2334 77.8005 43.6017V43.6017Z" fill="white"/>
<path d="M104.942 14.4357C104.424 14.9512 98.7298 12.7417 98.2861 12.3734C98.0642 12.2998 98.0642 11.416 97.7684 11.7842C97.4726 12.1525 97.1768 12.5207 96.8809 12.889C96.5851 13.2573 96.2893 13.6255 95.9195 13.9938C95.6977 14.2147 95.5497 14.362 95.9195 14.5093C96.5112 14.2147 99.9131 19.8859 99.6173 20.7697C99.0996 21.0643 94.5144 17.0135 94.3665 16.7925C94.2925 16.7189 94.5883 16.056 94.2186 16.1297C94.0706 16.1297 93.7009 16.7925 93.553 16.9398C93.3311 17.2344 93.1092 17.4554 92.8874 17.75C93.1092 18.1182 93.2571 17.75 93.6269 17.75C93.9227 17.8236 94.9581 18.7075 95.2539 19.0021C94.7362 19.0021 93.2571 19.0757 93.1092 19.0757C92.4436 19.1494 92.8134 18.5602 92.3697 18.4129C91.778 19.0757 91.2604 19.7386 90.6687 20.4751C90.3729 20.8434 90.0031 21.2853 89.7073 21.6535C89.6334 21.7272 89.7073 21.6535 89.7073 21.7272C89.9292 21.9481 89.7813 21.8745 90.151 21.7272C90.5208 21.5799 95.0321 25.3361 95.18 25.557C95.4758 25.8517 95.0321 26.2936 95.4758 26.4409C95.9195 25.9253 96.3632 25.3361 96.807 24.8205C96.8809 24.7469 96.8809 24.7469 96.807 24.6732C96.5112 24.3786 96.4372 24.8205 96.0674 24.8205C95.6977 24.7469 92.8134 22.3164 91.7041 21.4326C93.0353 21.3589 97.1028 21.2116 97.7684 21.2116C97.9903 21.2116 98.5819 21.8745 98.5819 22.0954C98.5079 22.39 98.2121 22.5373 98.6559 22.6846C99.0256 22.2427 99.3954 21.8745 99.7652 21.4326L99.9131 21.2116C99.987 21.138 99.987 21.138 100.061 20.9907L100.209 20.8434C100.505 20.4751 101.54 19.3703 101.392 19.2967C101.022 19.0021 100.875 19.6649 100.431 19.223C100.209 19.0757 99.5433 17.8973 99.3954 17.6027C99.1735 17.3081 99.8391 16.9398 100.135 16.7925C100.727 16.4243 102.502 15.9087 102.723 17.0135C102.723 17.2344 102.502 17.3817 102.649 17.529C102.649 17.529 102.797 17.6763 102.871 17.6763C103.019 17.529 104.646 15.6141 105.312 14.7303C105.09 14.583 105.016 14.5093 104.942 14.4357ZM99.4694 16.056C99.5433 16.056 99.6173 15.9824 99.4694 16.056C99.2475 16.2033 98.9517 16.4243 98.7298 16.6452C98.36 15.9824 97.9903 15.3195 97.5465 14.6566C98.434 15.0249 99.3214 15.3931 100.135 15.7614C99.987 15.8351 99.7652 15.9087 99.4694 16.056Z" fill="white"/>
<path d="M92.2957 24.305C90.5208 22.8319 88.1542 23.2738 86.6751 24.8942C85.27 26.5882 85.4179 29.0923 87.1188 30.4917C88.8198 31.8911 91.3343 31.5228 92.7394 29.9025C94.1446 28.2085 94.0706 25.7043 92.2957 24.305ZM92.0738 29.166C92.0738 29.166 92.0738 29.2396 92.0738 29.166C91.1124 30.1234 89.5594 29.2396 88.7458 28.6504C87.9323 28.0612 86.4532 26.7355 87.3407 25.6307C88.1542 24.6732 89.6333 25.4834 90.4468 25.9989C91.3343 26.5882 92.9613 27.9139 92.1478 29.0923C92.2217 29.0187 92.2217 29.0187 92.0738 29.166Z" fill="white"/>
<path d="M92.2957 24.305C93.1832 25.0415 92.0739 24.1577 92.2957 24.305V24.305Z" fill="white"/>
<path d="M92.0738 29.2396C92.0738 29.166 92.0738 29.166 92.0738 29.2396C92.1478 29.166 92.1478 29.166 92.1478 29.166C92.0738 29.166 92.0738 29.2396 92.0738 29.2396Z" fill="white"/>
<path d="M87.4147 31.0073C87.4887 31.0809 87.6366 31.2282 87.4147 31.0073C85.27 29.3869 82.7556 29.8288 81.1286 31.8174C80.389 32.7012 79.6495 33.5851 78.9099 34.4689C79.2057 34.8371 79.5016 34.3952 79.8713 34.6162C80.1671 34.8371 84.4565 38.3724 84.5305 38.5934C84.6784 38.9616 84.3086 38.9616 84.6044 39.2562C84.7524 39.3299 87.9324 35.4263 88.2282 34.6898C88.8938 33.3641 88.4501 31.9647 87.4147 31.0073ZM86.4533 36.0156C86.3054 36.2365 86.4533 36.0892 85.9356 36.5311C85.7138 36.7521 81.2025 33.0695 81.3504 32.9222C81.9421 32.2593 83.2733 31.7438 84.0128 31.9647C85.6398 32.333 87.8585 34.3216 86.4533 36.0156Z" fill="white"/>
</svg>
